HIERARCHY
ROOT Hips
{
	OFFSET 0.000000 0.000000 0.000000
	CHANNELS 6 Xposition Yposition Zposition Zrotation Yrotation Xrotation 
	JOINT Spine1
	{
		OFFSET -0.013727 5.003762 -0.053727
		CHANNELS 3 Zrotation Yrotation Xrotation
		JOINT Spine2
		{
			OFFSET -0.000000 7.125302 -0.029825
			CHANNELS 3 Zrotation Yrotation Xrotation
			JOINT Chest
			{
				OFFSET -0.000001 7.550064 -0.815971
				CHANNELS 3 Zrotation Yrotation Xrotation
				JOINT Neck1
				{
					OFFSET -0.181676 26.311296 -0.553348
					CHANNELS 3 Zrotation Yrotation Xrotation
					JOINT Neck2
					{
						OFFSET -0.000003 7.709399 2.302586
						CHANNELS 3 Zrotation Yrotation Xrotation
						JOINT Head
						{
							OFFSET -0.000005 6.128912 1.953709
							CHANNELS 3 Zrotation Yrotation Xrotation
							JOINT HeadEnd
							{
								OFFSET 0.003598 16.065401 -1.835379
								CHANNELS 3 Zrotation Yrotation Xrotation
								End Site
								{
									OFFSET 0.000000 0.000000 0.000000
								}
							}
							JOINT Jaw
							{
								OFFSET 0.002637 0.475592 3.094941
								CHANNELS 3 Zrotation Yrotation Xrotation
								End Site
								{
									OFFSET 0.000000 0.000000 0.000000
								}
							}
							JOINT LeftEye
							{
								OFFSET 3.206381 5.380208 7.586883
								CHANNELS 3 Zrotation Yrotation Xrotation
								End Site
								{
									OFFSET 0.000000 0.000000 0.000000
								}
							}
							JOINT RightEye
							{
								OFFSET -3.222440 5.361868 7.558234
								CHANNELS 3 Zrotation Yrotation Xrotation
								End Site
								{
									OFFSET 0.000000 0.000000 0.000000
								}
							}
						}
					}
				}
				JOINT LeftShoulder
				{
					OFFSET 1.621652 23.237164 5.113413
					CHANNELS 3 Zrotation Yrotation Xrotation
					JOINT LeftArm
					{
						OFFSET 14.919845 0.000001 -5.502326
						CHANNELS 3 Zrotation Yrotation Xrotation
						JOINT LeftForeArm
						{
							OFFSET 28.739309 0.000003 -0.002588
							CHANNELS 3 Zrotation Yrotation Xrotation
							JOINT LeftHand
							{
								OFFSET 27.093979 -0.000003 0.002609
								CHANNELS 3 Zrotation Yrotation Xrotation
								JOINT LeftHandThumb1
								{
									OFFSET 2.276480 -1.392046 3.191413
									CHANNELS 3 Zrotation Yrotation Xrotation
									JOINT LeftHandThumb2
									{
										OFFSET 4.012841 -1.828125 1.641655
										CHANNELS 3 Zrotation Yrotation Xrotation
										JOINT LeftHandThumb3
										{
											OFFSET 2.798517 0.000002 -0.000003
											CHANNELS 3 Zrotation Yrotation Xrotation
											JOINT LeftHandThumbEnd
											{
												OFFSET 3.180790 -0.000002 0.000002
												CHANNELS 3 Zrotation Yrotation Xrotation
												End Site
												{
													OFFSET 0.000000 0.000000 0.000000
												}
											}
										}
									}
								}
								JOINT LeftHandIndex1
								{
									OFFSET 3.247554 -0.531998 2.296170
									CHANNELS 3 Zrotation Yrotation Xrotation
									JOINT LeftHandIndex2
									{
										OFFSET 6.364580 0.012062 0.178599
										CHANNELS 3 Zrotation Yrotation Xrotation
										JOINT LeftHandIndex3
										{
											OFFSET 3.662367 0.000001 0.000000
											CHANNELS 3 Zrotation Yrotation Xrotation
											JOINT LeftHandIndex4
											{
												OFFSET 2.329242 0.000002 0.000003
												CHANNELS 3 Zrotation Yrotation Xrotation
												JOINT LeftHandIndexEnd
												{
													OFFSET 2.759619 -0.180539 -0.113024
													CHANNELS 3 Zrotation Yrotation Xrotation
													End Site
													{
														OFFSET 0.000000 0.000000 0.000000
													}
												}
											}
										}
									}
								}
								JOINT LeftHandMiddle1
								{
									OFFSET 3.163500 0.240982 1.000333
									CHANNELS 3 Zrotation Yrotation Xrotation
									JOINT LeftHandMiddle2
									{
										OFFSET 6.190778 -0.259276 -1.002548
										CHANNELS 3 Zrotation Yrotation Xrotation
										JOINT LeftHandMiddle3
										{
											OFFSET 4.356522 -0.000007 -0.000000
											CHANNELS 3 Zrotation Yrotation Xrotation
											JOINT LeftHandMiddle4
											{
												OFFSET 2.996875 -0.000006 0.000001
												CHANNELS 3 Zrotation Yrotation Xrotation
												JOINT LeftHandMiddleEnd
												{
													OFFSET 2.304294 -0.294571 -0.031740
													CHANNELS 3 Zrotation Yrotation Xrotation
													End Site
													{
														OFFSET 0.000000 0.000000 0.000000
													}
												}
											}
										}
									}
								}
								JOINT LeftHandRing1
								{
									OFFSET 2.882642 -0.053650 -0.322543
									CHANNELS 3 Zrotation Yrotation Xrotation
									JOINT LeftHandRing2
									{
										OFFSET 5.854543 -0.486203 -1.373841
										CHANNELS 3 Zrotation Yrotation Xrotation
										JOINT LeftHandRing3
										{
											OFFSET 4.350580 -0.000001 0.000003
											CHANNELS 3 Zrotation Yrotation Xrotation
											JOINT LeftHandRing4
											{
												OFFSET 2.651325 0.000008 0.000004
												CHANNELS 3 Zrotation Yrotation Xrotation
												JOINT LeftHandRingEnd
												{
													OFFSET 1.936111 0.077683 -0.000071
													CHANNELS 3 Zrotation Yrotation Xrotation
													End Site
													{
														OFFSET 0.000000 0.000000 0.000000
													}
												}
											}
										}
									}
								}
								JOINT LeftHandPinky1
								{
									OFFSET 2.865500 -0.310003 -1.600378
									CHANNELS 3 Zrotation Yrotation Xrotation
									JOINT LeftHandPinky2
									{
										OFFSET 5.087852 -1.331142 -1.771231
										CHANNELS 3 Zrotation Yrotation Xrotation
										JOINT LeftHandPinky3
										{
											OFFSET 3.070976 0.000004 0.000001
											CHANNELS 3 Zrotation Yrotation Xrotation
											JOINT LeftHandPinky4
											{
												OFFSET 1.549667 -0.000000 0.000001
												CHANNELS 3 Zrotation Yrotation Xrotation
												JOINT LeftHandPinkyEnd
												{
													OFFSET 1.944895 -0.157802 0.057219
													CHANNELS 3 Zrotation Yrotation Xrotation
													End Site
													{
														OFFSET 0.000000 0.000000 0.000000
													}
												}
											}
										}
									}
								}
							}
						}
					}
				}
				JOINT RightShoulder
				{
					OFFSET -1.380118 23.180307 5.214158
					CHANNELS 3 Zrotation Yrotation Xrotation
					JOINT RightArm
					{
						OFFSET -15.037197 0.000012 -5.545604
						CHANNELS 3 Zrotation Yrotation Xrotation
						JOINT RightForeArm
						{
							OFFSET -28.736639 0.000004 -0.002597
							CHANNELS 3 Zrotation Yrotation Xrotation
							JOINT RightHand
							{
								OFFSET -27.133617 -0.000000 0.002612
								CHANNELS 3 Zrotation Yrotation Xrotation
								JOINT RightHandThumb1
								{
									OFFSET -2.274036 -1.383990 3.163127
									CHANNELS 3 Zrotation Yrotation Xrotation
									JOINT RightHandThumb2
									{
										OFFSET -4.011428 -1.827468 1.640914
										CHANNELS 3 Zrotation Yrotation Xrotation
										JOINT RightHandThumb3
										{
											OFFSET -2.794935 -0.000003 -0.000004
											CHANNELS 3 Zrotation Yrotation Xrotation
											JOINT RightHandThumbEnd
											{
												OFFSET -3.183856 0.000003 0.000000
												CHANNELS 3 Zrotation Yrotation Xrotation
												End Site
												{
													OFFSET 0.000000 0.000000 0.000000
												}
											}
										}
									}
								}
								JOINT RightHandIndex1
								{
									OFFSET -3.253270 -0.520059 2.282866
									CHANNELS 3 Zrotation Yrotation Xrotation
									JOINT RightHandIndex2
									{
										OFFSET -6.341919 0.012473 0.178265
										CHANNELS 3 Zrotation Yrotation Xrotation
										JOINT RightHandIndex3
										{
											OFFSET -3.654875 -0.000008 -0.000000
											CHANNELS 3 Zrotation Yrotation Xrotation
											JOINT RightHandIndex4
											{
												OFFSET -2.327586 -0.000001 -0.000001
												CHANNELS 3 Zrotation Yrotation Xrotation
												JOINT RightHandIndexEnd
												{
													OFFSET -2.761790 -0.180656 -0.113078
													CHANNELS 3 Zrotation Yrotation Xrotation
													End Site
													{
														OFFSET 0.000000 0.000000 0.000000
													}
												}
											}
										}
									}
								}
								JOINT RightHandMiddle1
								{
									OFFSET -3.168107 0.246593 1.001030
									CHANNELS 3 Zrotation Yrotation Xrotation
									JOINT RightHandMiddle2
									{
										OFFSET -6.180830 -0.258836 -1.000896
										CHANNELS 3 Zrotation Yrotation Xrotation
										JOINT RightHandMiddle3
										{
											OFFSET -4.348905 -0.000000 -0.000001
											CHANNELS 3 Zrotation Yrotation Xrotation
											JOINT RightHandMiddle4
											{
												OFFSET -3.000243 -0.000004 -0.000003
												CHANNELS 3 Zrotation Yrotation Xrotation
												JOINT RightHandMiddleEnd
												{
													OFFSET -2.302518 -0.294372 -0.031707
													CHANNELS 3 Zrotation Yrotation Xrotation
													End Site
													{
														OFFSET 0.000000 0.000000 0.000000
													}
												}
											}
										}
									}
								}
								JOINT RightHandRing1
								{
									OFFSET -2.885694 -0.067953 -0.308858
									CHANNELS 3 Zrotation Yrotation Xrotation
									JOINT RightHandRing2
									{
										OFFSET -5.854196 -0.486132 -1.373732
										CHANNELS 3 Zrotation Yrotation Xrotation
										JOINT RightHandRing3
										{
											OFFSET -4.338815 -0.000003 0.000000
											CHANNELS 3 Zrotation Yrotation Xrotation
											JOINT RightHandRing4
											{
												OFFSET -2.654905 -0.000005 0.000003
												CHANNELS 3 Zrotation Yrotation Xrotation
												JOINT RightHandRingEnd
												{
													OFFSET -1.933571 0.077524 -0.000052
													CHANNELS 3 Zrotation Yrotation Xrotation
													End Site
													{
														OFFSET 0.000000 0.000000 0.000000
													}
												}
											}
										}
									}
								}
								JOINT RightHandPinky1
								{
									OFFSET -2.866430 -0.342799 -1.584145
									CHANNELS 3 Zrotation Yrotation Xrotation
									JOINT RightHandPinky2
									{
										OFFSET -5.091371 -1.332054 -1.772385
										CHANNELS 3 Zrotation Yrotation Xrotation
										JOINT RightHandPinky3
										{
											OFFSET -3.062666 -0.000007 0.000000
											CHANNELS 3 Zrotation Yrotation Xrotation
											JOINT RightHandPinky4
											{
												OFFSET -1.546526 0.000005 -0.000003
												CHANNELS 3 Zrotation Yrotation Xrotation
												JOINT RightHandPinkyEnd
												{
													OFFSET -1.945122 -0.157721 0.057211
													CHANNELS 3 Zrotation Yrotation Xrotation
													End Site
													{
														OFFSET 0.000000 0.000000 0.000000
													}
												}
											}
										}
									}
								}
							}
						}
					}
				}
			}
		}
	}
	JOINT LeftLeg
	{
		OFFSET 10.043214 -8.434526 2.595655
		CHANNELS 3 Zrotation Yrotation Xrotation
		JOINT LeftShin
		{
			OFFSET -0.000002 -43.221752 -0.802913
			CHANNELS 3 Zrotation Yrotation Xrotation
			JOINT LeftFoot
			{
				OFFSET 0.000001 -42.155094 -3.481524
				CHANNELS 3 Zrotation Yrotation Xrotation
				JOINT LeftToeBase
				{
					OFFSET -0.000001 -5.059475 13.231529
					CHANNELS 3 Zrotation Yrotation Xrotation
					JOINT LeftToeEnd
					{
						OFFSET -0.009607 -1.647615 6.513017
						CHANNELS 3 Zrotation Yrotation Xrotation
						End Site
						{
							OFFSET 0.000000 0.000000 0.000000
						}
					}
				}
			}
		}
	}
	JOINT RightLeg
	{
		OFFSET -10.047277 -8.295260 2.620317
		CHANNELS 3 Zrotation Yrotation Xrotation
		JOINT RightShin
		{
			OFFSET 0.000000 -43.362209 -0.805555
			CHANNELS 3 Zrotation Yrotation Xrotation
			JOINT RightFoot
			{
				OFFSET 0.000001 -42.117393 -3.478397
				CHANNELS 3 Zrotation Yrotation Xrotation
				JOINT RightToeBase
				{
					OFFSET -0.000001 -5.079609 13.284196
					CHANNELS 3 Zrotation Yrotation Xrotation
					JOINT RightToeEnd
					{
						OFFSET 0.009533 -1.634383 6.460591
						CHANNELS 3 Zrotation Yrotation Xrotation
						End Site
						{
							OFFSET 0.000000 0.000000 0.000000
						}
					}
				}
			}
		}
	}
}
MOTION
Frames: 4
Frame Time: 0.033333
1.636876 91.255829 -3.344867 0.669660 0.897180 0.862880 -2.635053 -0.355373 1.357459 -0.654211 -2.432861 -4.205170 -1.006485 -5.044587 10.115543 11.491424 -4.281058 16.587196 -2.677294 -8.601063 -3.453951 5.794314 -11.982191 -6.971118 0.000077 -0.000022 0.000007 -0.010953 0.031225 -0.041027 0.748834 -3.700611 -10.576519 -0.788345 3.772614 -10.549716 2.110651 -11.791939 8.911212 -57.481743 -60.472511 -0.832334 -178.845123 -59.387093 179.984879 3.522205 2.596876 -2.315500 -5.882099 9.861281 0.702587 -10.936856 -0.360576 7.156198 -0.000002 8.774816 -0.000004 -16.110319 18.374636 6.313882 -1.844032 2.498503 -2.507275 -10.163588 4.678939 4.621103 -20.975992 -0.000005 0.000002 -21.226250 2.451693 -3.593994 0.000000 -0.000006 -0.000000 -1.362679 2.240797 -0.746321 -21.334888 0.584907 3.008321 -13.821194 -0.000003 0.000001 -23.887131 -0.249078 -0.839480 -60.548126 2.585399 -1.532512 -0.294024 1.679686 0.833254 -14.218189 0.093214 1.300579 -34.211990 -0.287565 0.967169 -20.033178 0.964534 1.212842 -0.000000 0.000002 0.000000 -3.440386 0.788233 0.501654 -15.928167 -3.167308 2.999706 -6.338818 -0.000000 0.000001 -18.123413 3.648178 -4.905664 -0.000004 0.000001 -0.000003 -0.790786 8.355363 8.887524 41.600544 33.318707 -24.035828 -178.933670 43.221870 -179.294891 -26.511045 -3.585409 8.733442 2.243540 -5.255034 -3.180153 14.282875 -0.826592 6.952495 -0.000001 -12.690591 -0.000001 16.210648 -17.834436 2.871645 1.665664 -1.955919 -2.878296 4.727793 -4.170584 4.993917 11.020513 0.000002 0.000000 12.109033 -3.735709 -2.866780 -0.000001 -0.000000 -0.000000 1.291984 -1.928548 -1.498088 14.800114 0.567467 3.865603 14.242553 -1.341734 -6.660649 19.631939 0.143923 -0.648244 49.880508 -0.888701 -6.191284 0.353030 -1.511149 -0.031941 20.222767 3.684307 2.316627 18.787245 0.000005 -0.000001 10.751610 -0.479867 1.397904 0.000001 0.000001 0.000000 3.273804 0.305946 -0.580111 21.486792 11.830361 2.266130 8.162917 0.000002 -0.000001 18.399054 -3.798979 -4.940568 0.000003 0.000000 -0.000000 18.675863 16.847303 -8.710836 -0.305661 -1.051369 35.226273 -18.232515 -12.317119 -20.326363 1.629870 -1.827336 -3.423595 0.000000 -0.000000 0.000002 -22.987000 -18.660166 -20.450853 0.602237 1.051957 32.504364 22.192080 11.595988 -2.085038 -1.414077 0.919495 -2.853584 0.000000 0.000000 -0.000001 
1.747773 91.182693 -3.367804 0.709340 0.569912 0.899412 -2.675294 -0.335238 1.390264 -0.626987 -2.364657 -4.223801 -1.050523 -4.920532 10.198103 11.511601 -4.174084 16.456047 -2.748928 -8.726542 -3.442029 5.889803 -11.994360 -6.794415 0.000077 -0.000023 0.000006 0.005629 0.020778 -0.042298 0.753053 -3.713042 -10.589367 -0.763872 3.753995 -10.566031 2.190082 -11.605571 8.834570 -57.660072 -60.608303 -0.697318 -178.922348 -59.697620 179.889008 3.425639 2.643124 -2.409520 -5.882100 9.861280 0.702590 -10.936858 -0.360574 7.156199 -0.000002 8.774816 -0.000003 -16.142296 18.370470 6.262193 -1.844031 2.498502 -2.507277 -10.163588 4.678940 4.621105 -20.975996 -0.000002 0.000005 -21.226254 2.451694 -3.593995 0.000000 -0.000005 -0.000001 -1.362681 2.240799 -0.746323 -21.334894 0.584910 3.008322 -13.821197 -0.000000 0.000003 -23.887131 -0.249075 -0.839481 -60.600357 2.437240 -1.593728 -0.294024 1.679687 0.833256 -14.218190 0.093215 1.300580 -34.212002 -0.287561 0.967171 -20.033180 0.964538 1.212842 0.000000 0.000001 0.000001 -3.440386 0.788233 0.501654 -15.928169 -3.167306 2.999703 -6.338817 -0.000001 0.000001 -18.123415 3.648178 -4.905662 -0.000003 -0.000000 -0.000003 -0.783975 8.366446 9.056751 41.608341 33.427700 -24.624165 -179.067764 43.136543 -179.292404 -26.829103 -3.795777 8.704535 2.243541 -5.255032 -3.180156 14.282877 -0.826593 6.952495 -0.000001 -12.690592 -0.000003 16.141638 -17.804667 2.972171 1.665664 -1.955920 -2.878296 4.727795 -4.170583 4.993918 11.020512 0.000003 -0.000001 12.109033 -3.735711 -2.866779 -0.000001 -0.000000 -0.000000 1.291985 -1.928548 -1.498089 14.800113 0.567468 3.865603 14.242553 -1.341735 -6.660648 19.631939 0.143922 -0.648244 49.702885 -0.905621 -6.145731 0.353029 -1.511149 -0.031940 20.222771 3.684304 2.316628 18.787245 0.000002 -0.000000 10.751612 -0.479868 1.397904 -0.000000 0.000002 0.000001 3.273805 0.305947 -0.580109 21.486792 11.830361 2.266133 8.162918 0.000002 -0.000001 18.399055 -3.798979 -4.940567 0.000003 0.000001 -0.000001 18.614874 17.165607 -8.784141 -0.334381 -1.053626 35.604652 -18.221432 -12.256132 -20.516771 1.625703 -1.869734 -3.505383 0.000000 -0.000000 0.000002 -23.039335 -18.639242 -20.776327 0.608116 1.058863 32.686676 22.420790 11.915089 -1.903638 -1.411689 0.874252 -3.042139 0.000000 0.000000 -0.000001 
1.902960 91.068741 -3.468435 0.780771 0.275238 0.936880 -2.720817 -0.323042 1.417585 -0.621499 -2.332473 -4.225164 -1.106028 -4.815848 10.244630 11.524977 -4.079819 16.354099 -2.802516 -8.800654 -3.439037 5.992338 -12.071368 -6.589686 0.000077 -0.000022 0.000006 0.000819 0.028115 -0.035255 0.748238 -3.726976 -10.582262 -0.752104 3.756017 -10.567566 2.267513 -11.510250 8.786675 -57.550911 -60.669727 -1.066494 -178.742508 -59.950813 179.671539 3.278245 2.654193 -2.410933 -5.882101 9.861279 0.702591 -10.936859 -0.360575 7.156196 -0.000001 8.774815 -0.000002 -16.087250 18.375944 6.258621 -1.844032 2.498503 -2.507276 -10.163589 4.678941 4.621105 -20.975994 -0.000004 0.000001 -21.226255 2.451692 -3.593996 0.000001 -0.000006 -0.000002 -1.362681 2.240797 -0.746324 -21.334887 0.584909 3.008318 -13.821197 -0.000002 0.000001 -23.887129 -0.249079 -0.839482 -60.669979 2.419356 -1.641693 -0.294024 1.679687 0.833255 -14.218190 0.093214 1.300578 -34.211998 -0.287566 0.967168 -20.033176 0.964533 1.212839 0.000000 0.000000 0.000000 -3.440385 0.788234 0.501656 -15.928165 -3.167306 2.999701 -6.338817 -0.000002 0.000000 -18.123413 3.648175 -4.905662 -0.000003 0.000001 -0.000003 -0.802298 8.305388 9.158207 41.734356 33.485001 -25.330099 -179.346756 43.054134 -179.439789 -27.204302 -4.024678 8.695144 2.243540 -5.255033 -3.180156 14.282877 -0.826592 6.952497 -0.000002 -12.690587 0.000000 16.066786 -17.794695 3.002743 1.665666 -1.955921 -2.878298 4.727794 -4.170584 4.993918 11.020514 0.000003 -0.000001 12.109034 -3.735709 -2.866782 -0.000001 -0.000001 0.000000 1.291984 -1.928548 -1.498088 14.800111 0.567467 3.865603 14.242554 -1.341732 -6.660650 19.631939 0.143925 -0.648244 49.664181 -0.881845 -6.169014 0.353029 -1.511149 -0.031941 20.222767 3.684307 2.316627 18.787247 0.000004 -0.000001 10.751612 -0.479867 1.397903 0.000001 0.000001 0.000001 3.273805 0.305947 -0.580111 21.486792 11.830362 2.266130 8.162919 0.000002 -0.000001 18.399054 -3.798979 -4.940567 0.000003 0.000000 -0.000000 18.498920 17.612158 -9.000060 -0.350926 -1.048871 36.148193 -18.254679 -12.308852 -20.774237 1.625357 -1.890149 -3.496951 -0.000000 0.000000 0.000002 -23.160034 -18.664822 -21.156052 0.647348 1.078717 32.900394 22.643246 12.323882 -1.744686 -1.410908 0.841065 -3.153195 0.000000 0.000000 -0.000001 
2.060234 90.935341 -3.515047 0.870297 -0.189513 0.999253 -2.772261 -0.331328 1.413151 -0.632245 -2.312236 -4.224380 -1.138507 -4.723922 10.273708 11.465247 -3.989464 16.278299 -2.852375 -8.780281 -3.425251 6.099601 -12.141887 -6.293468 0.000077 -0.000021 0.000006 0.008340 0.013859 -0.039244 0.736980 -3.713231 -10.568501 -0.742032 3.752219 -10.564644 2.341680 -11.421993 8.807516 -57.126919 -60.740704 -1.810897 -178.451996 -60.186695 179.403503 3.177532 2.706770 -2.310136 -5.882099 9.861279 0.702589 -10.936858 -0.360575 7.156199 -0.000000 8.774814 -0.000003 -15.940595 18.327335 6.290820 -1.844031 2.498502 -2.507275 -10.163589 4.678938 4.621103 -20.975994 -0.000002 0.000004 -21.226254 2.451694 -3.593993 0.000000 -0.000006 -0.000002 -1.362681 2.240798 -0.746324 -21.334892 0.584910 3.008321 -13.821197 -0.000001 0.000004 -23.887131 -0.249076 -0.839481 -60.607094 2.432926 -1.647522 -0.294023 1.679686 0.833255 -14.218192 0.093215 1.300581 -34.212002 -0.287562 0.967173 -20.033180 0.964537 1.212843 0.000000 0.000001 0.000000 -3.440385 0.788233 0.501657 -15.928165 -3.167306 2.999707 -6.338817 -0.000001 0.000003 -18.123415 3.648178 -4.905663 -0.000003 -0.000000 -0.000002 -0.869655 8.194832 9.212359 41.959194 33.587250 -26.120232 -179.646225 43.055138 -179.639359 -27.596069 -4.404430 8.393414 2.243540 -5.255033 -3.180156 14.282877 -0.826594 6.952497 -0.000002 -12.690592 -0.000002 16.037718 -17.791235 2.995520 1.665666 -1.955920 -2.878298 4.727795 -4.170583 4.993918 11.020512 0.000003 -0.000001 12.109033 -3.735711 -2.866780 -0.000001 0.000000 0.000000 1.291984 -1.928547 -1.498089 14.800114 0.567467 3.865604 14.242554 -1.341738 -6.660648 19.631941 0.143925 -0.648242 49.639816 -0.899196 -6.218631 0.353029 -1.511149 -0.031941 20.222771 3.684304 2.316628 18.787251 0.000004 -0.000001 10.751612 -0.479868 1.397904 -0.000000 0.000001 0.000000 3.273805 0.305947 -0.580109 21.486794 11.830362 2.266132 8.162917 0.000002 -0.000001 18.399055 -3.798981 -4.940569 0.000003 0.000000 -0.000001 18.392931 18.190073 -9.106202 -0.384872 -1.046836 36.652428 -18.340313 -12.332874 -21.099941 1.624874 -1.901049 -3.482397 0.000000 -0.000000 0.000002 -23.274340 -18.588331 -21.667925 0.705500 1.128049 33.212601 22.858164 12.800404 -1.628574 -1.411184 0.835439 -3.175520 -0.000000 -0.000000 -0.000001 
